<svg xmlns="http://www.w3.org/2000/svg" viewBox="0 0 1702 258"><defs><style>.cls-1{fill:#2d112b;fill-rule:evenodd;}</style></defs><g id="Layer_1" data-name="Layer 1"><path id="Path-26-Copy-5" class="cls-1" d="M602.42,221.41a16.55,16.55,0,0,1,5.54-1.29c2.13,0,4.46-5,7.56-4.34s3.87,2.78,6.26,2.78,1.07,2,5.57,2.85,6,3.11,9.37,3.11,10-.91,13-.91,7.68,2.15,9.76,2.63,20-7,33.81-6.12,28.47-3.92,34.07-5.56,17.49-8.36,27.59-8.36,16.26-3.84,29.27-3.84,16.68-5.13,23.66-4.14,5.91,3,13.54,4.14,10.34,1.23,15.8,2.53,15.47,1.84,19.71.66,7.38-.66,9.78-.66,9.42-2.53,19.74-2.53,29.83-4.14,44.68-4.14,28,7.58,34.61,7.13,7.85-1.57,12,0c2.79,1.05,4.15,1.33,4.11.85a25.3,25.3,0,0,1,8.86.72c3.8,1.09,21-.55,24.58-1.57s18.85-3.88,23.94-3.1,14.38,3.1,19.27,3.1,7.1.85,11.62.85,21.37-11.11,28.74-9.54a79.22,79.22,0,0,0,16.35,1.56l-.71,72.08H601.71Z"/><path id="Path-26-Copy-5-2" data-name="Path-26-Copy-5" class="cls-1" d="M1624.71,221.38a16.36,16.36,0,0,0-5.54-1.3c-2.13,0-4.46-5-7.56-4.33s-3.87,2.78-6.26,2.78-1.07,2-5.57,2.85-6,3.11-9.37,3.11-10-.91-13-.91-7.68,2.15-9.76,2.63-20-7-33.81-6.13-28.47-3.91-34.07-5.55-17.49-8.37-27.6-8.37-16.25-3.83-29.27-3.83-16.67-5.14-23.66-4.14-5.9,3-13.53,4.14-10.34,1.23-15.8,2.53-15.47,1.84-19.71.66-7.38-.66-9.78-.66-9.42-2.53-19.74-2.53-29.83-4.14-44.68-4.14-28,7.58-34.61,7.13-7.85-1.57-12,0c-2.79,1-4.16,1.33-4.11.84a25.53,25.53,0,0,0-8.86.73c-3.8,1.08-21.06-.55-24.58-1.57s-18.85-3.88-24-3.11-14.37,3.11-19.26,3.11-7.1.84-11.62.84-21.37-11.1-28.74-9.54a78.5,78.5,0,0,1-16.35,1.57l-.71,72.08H1624Z"/><path id="Path-26-Copy-5-3" data-name="Path-26-Copy-5" class="cls-1" d="M1623.53,221.38a16.36,16.36,0,0,1,5.54-1.3c2.13,0,4.47-5,7.56-4.33s3.87,2.78,6.26,2.78,1.07,2,5.57,2.85,6,3.11,9.37,3.11,10-.91,13-.91,7.68,2.15,9.76,2.63,20-7,33.81-6.13,28.47-3.91,34.07-5.55,17.49-8.37,27.6-8.37,16.25-3.83,29.27-3.83,16.67-5.14,23.66-4.14,5.9,3,13.53,4.14,10.34,1.23,15.8,2.53,15.47,1.84,19.71.66,7.38-.66,9.78-.66,9.42-2.53,19.74-2.53,29.83-4.14,44.68-4.14,28,7.58,34.61,7.13,7.85-1.57,12,0c2.79,1,4.16,1.33,4.11.84a25.53,25.53,0,0,1,8.86.73c3.8,1.08,21.06-.55,24.58-1.57s18.85-3.88,23.95-3.11,14.37,3.11,19.26,3.11,7.1.84,11.62.84,21.37-11.1,28.74-9.54a78.5,78.5,0,0,0,16.35,1.57l.71,72.08H1624.24Z"/><path id="Path-26-Copy-5-4" data-name="Path-26-Copy-5" class="cls-1" d="M-417.9,221.38a16.36,16.36,0,0,1,5.54-1.3c2.13,0,4.46-5,7.56-4.33s3.87,2.78,6.25,2.78,1.08,2,5.58,2.85,6,3.11,9.36,3.11,10-.91,13-.91,7.67,2.15,9.75,2.63,20-7,33.81-6.13,28.48-3.91,34.08-5.55,17.49-8.37,27.59-8.37,16.26-3.83,29.27-3.83,16.68-5.14,23.66-4.14,5.91,3,13.54,4.14,10.33,1.23,15.8,2.53,15.47,1.84,19.71.66,7.38-.66,9.78-.66,9.41-2.53,19.73-2.53,29.83-4.14,44.69-4.14,28,7.58,34.61,7.13,7.84-1.57,12,0c2.78,1,4.15,1.33,4.1.84a25.59,25.59,0,0,1,8.87.73c3.8,1.08,21.05-.55,24.58-1.57s18.84-3.88,23.94-3.11,14.37,3.11,19.27,3.11,7.1.84,11.62.84,21.37-11.1,28.74-9.54a78.37,78.37,0,0,0,16.35,1.57l.71,72.08H-417.19Z"/><path id="Path-26-Copy-5-5" data-name="Path-26-Copy-5" class="cls-1" d="M607.17,221.38a16.41,16.41,0,0,0-5.54-1.3c-2.13,0-4.47-5-7.56-4.33s-3.87,2.78-6.26,2.78-1.07,2-5.57,2.85-6,3.11-9.37,3.11-10-.91-13-.91-7.68,2.15-9.76,2.63-20-7-33.81-6.13-28.47-3.91-34.07-5.55-17.49-8.37-27.6-8.37-16.25-3.83-29.27-3.83-16.67-5.14-23.66-4.14-5.91,3-13.53,4.14-10.34,1.23-15.8,2.53-15.48,1.84-19.71.66-7.38-.66-9.78-.66-9.42-2.53-19.74-2.53-29.83-4.14-44.68-4.14-28,7.58-34.61,7.13-7.85-1.57-12,0c-2.79,1-4.16,1.33-4.11.84a25.53,25.53,0,0,0-8.86.73c-3.81,1.08-21.06-.55-24.58-1.57s-18.85-3.88-23.95-3.11-14.37,3.11-19.26,3.11-7.1.84-11.62.84-21.37-11.1-28.74-9.54a78.5,78.5,0,0,1-16.35,1.57l-.71,72.08H606.46Z"/></g></svg>