<svg xmlns="http://www.w3.org/2000/svg" xmlns:xlink="http://www.w3.org/1999/xlink" viewBox="0 0 1702 258"><defs><style>.cls-1,.cls-2,.cls-3,.cls-4,.cls-5,.cls-6{fill-rule:evenodd;}.cls-1{fill:url(#åçûìßííûé_ãðàäèåíò_269);}.cls-2{fill:url(#åçûìßííûé_ãðàäèåíò_269-2);}.cls-3{fill:url(#åçûìßííûé_ãðàäèåíò_269-3);}.cls-4{fill:url(#åçûìßííûé_ãðàäèåíò_269-4);}.cls-5{fill:url(#åçûìßííûé_ãðàäèåíò_269-5);}.cls-6{fill:url(#åçûìßííûé_ãðàäèåíò_269-6);}</style><linearGradient id="åçûìßííûé_ãðàäèåíò_269" x1="553.85" y1="550.32" x2="553.85" y2="550.16" gradientTransform="translate(1118620.1 348952.61) rotate(180) scale(2018.17 634)" gradientUnits="userSpaceOnUse"><stop offset="0" stop-color="#f29e7c"/><stop offset="0.59" stop-color="#fad588"/><stop offset="1" stop-color="#fce780"/></linearGradient><linearGradient id="åçûìßííûé_ãðàäèåíò_269-2" x1="553.6" y1="550.32" x2="553.6" y2="550.16" gradientTransform="matrix(2018.17, 0, 0, -634, -1116919.87, 348952.61)" xlink:href="#åçûìßííûé_ãðàäèåíò_269"/><linearGradient id="åçûìßííûé_ãðàäèåíò_269-3" x1="553.52" y1="550.32" x2="553.52" y2="550.16" gradientTransform="translate(1116945.41 348952.61) rotate(180) scale(2018.17 634)" xlink:href="#åçûìßííûé_ãðàäèåíò_269"/><linearGradient id="åçûìßííûé_ãðàäèåíò_269-4" x1="552.51" y1="550.32" x2="552.51" y2="550.16" gradientTransform="translate(1116945.41 348952.61) rotate(180) scale(2018.17 634)" xlink:href="#åçûìßííûé_ãðàäèåíò_269"/><linearGradient id="åçûìßííûé_ãðàäèåíò_269-5" x1="554.11" y1="550.32" x2="554.11" y2="550.16" gradientTransform="matrix(2018.17, 0, 0, -634, -1116919.87, 348952.61)" xlink:href="#åçûìßííûé_ãðàäèåíò_269"/><linearGradient id="åçûìßííûé_ãðàäèåíò_269-6" x1="553.52" y1="550.32" x2="553.52" y2="550.16" gradientTransform="translate(1116945.41 348952.61) rotate(180) scale(2018.17 634)" xlink:href="#åçûìßííûé_ãðàäèåíò_269"/></defs><g id="Layer_1" data-name="Layer 1"><path id="Path-28" class="cls-1" d="M1119.5,208.27V67.78a18.36,18.36,0,0,1-5.54-4c-2.13-2.33-3.74-3.27-4.8-3.27s-5.64,6.15-10.55,3.27-7.13-6.26-9.73-6.26-14,6.09-23.78,7.39c-6.53.87-9.33,1.82-8.38,2.88a41,41,0,0,1-6.28-1.69c-3.4-1.19-4.82,0-7.29,0S1032.3,64.9,1031,64.9s-1.63-4.4-5.73-4.4-6.34-6.92-7.22-6.92-3.22,2.57-6.42,1.29-5.1-3.61-6.77-3.61-4.89-.59-6.08.86-6.13,1.52-6.13,4.09q0,2.58-7,4.29a4.78,4.78,0,0,1-3.52,4.4c-3.3,1.19-9.16,4.24-11.9,4.24s-9-4.24-13.2-4.24-8-3.9-12.49-2.52-3.8-3.56-7.28-4.87-10-1.3-10-1.3-.39.44-1.19,1.3c0-.86-1-1.3-3.21-1.3-3.24,0-11.84.54-14,2.42s-7-7.37-9.53-7.37-7.52-.86-10.05,0-8.5.34-11-1.13-17.46-2-23.06,0-7.21,0-9.81,0-5.15-3.05-7.65-3.05S823.84,50.13,820,50.13s-6.77,6.27-10.1,7.38-5.36,3-8.44,3,1.07-1.87-5.08-1.87-7.28,4-9.84,5.14S775.19,79.48,772,81.17s-15.15-13.5-17.37-12-7.12,5.59-14.07,5.59-14.67-1.66-26.59,0-16,6.44-19.58,6.44C683.5,81.17,686,77,677.49,77c-11.32,0-1.41,1.25-11.64,2.3s-2.63,8.42-17.74,8.42-18.7,2.09-25.23,2.09-7.43-4.06-9.67-6.32c-1.49-1.51-3.77-2.27-6.82-2.27l.3,127.07Z"/><path id="Path-28-2" data-name="Path-28" class="cls-2" d="M94.57,208.14V67.65a18.24,18.24,0,0,0,5.55-4c2.13-2.33,3.73-3.27,4.79-3.27s5.64,6.15,10.55,3.27,7.13-6.25,9.73-6.25,14,6.08,23.79,7.38c6.53.87,9.32,1.82,8.38,2.88A41.19,41.19,0,0,0,163.63,66c3.4-1.19,4.82,0,7.3,0s10.85-1.19,12.12-1.19,1.63-4.4,5.74-4.4,6.33-6.92,7.21-6.92,3.22,2.57,6.42,1.29,5.1-3.61,6.77-3.61,4.89-.59,6.08.86,6.13,1.52,6.13,4.09q0,2.58,7,4.29a4.78,4.78,0,0,0,3.52,4.4C235.24,66,241.1,69,243.84,69s9-4.24,13.2-4.24,8-3.9,12.49-2.51,3.81-3.57,7.29-4.87,10-1.31,10-1.31.39.44,1.19,1.31c0-.87,1-1.31,3.21-1.31,3.25,0,11.84.54,14,2.42s7-7.37,9.52-7.37,7.52-.86,10.05,0,8.5.34,11-1.13,17.46-2,23.06,0,7.21,0,9.81,0,5.16-3,7.65-3,13.91,3,17.8,3,6.77,6.27,10.09,7.39,5.36,3,8.44,3-1.06-1.87,5.08-1.87,7.28,4,9.84,5.14S438.88,79.35,442.09,81s15.16-13.5,17.38-12,7.11,5.59,14.06,5.59,14.68-1.66,26.59,0,16,6.44,19.59,6.44c10.86,0,8.33-4.19,16.87-4.19,11.33,0,1.41,1.25,11.64,2.3s2.63,8.42,17.74,8.42,18.7,2.09,25.23,2.09,7.43-4.06,9.67-6.32q2.25-2.27,6.82-2.27l-.3,127.07Z"/><path id="Path-28-3" data-name="Path-28" class="cls-3" d="M95.34,208.14V67.65a18.19,18.19,0,0,1-5.54-4c-2.13-2.33-3.74-3.27-4.8-3.27s-5.64,6.15-10.55,3.27-7.13-6.25-9.72-6.25-14,6.08-23.79,7.38c-6.53.87-9.33,1.82-8.38,2.88A41.29,41.29,0,0,1,26.28,66c-3.4-1.19-4.81,0-7.29,0S8.14,64.77,6.86,64.77s-1.63-4.4-5.73-4.4-6.33-6.92-7.21-6.92S-9.31,56-12.51,54.74s-5.09-3.61-6.77-3.61-4.88-.59-6.08.86-6.12,1.52-6.12,4.09c0,1.72-2.35,3.15-7,4.29A4.78,4.78,0,0,1-42,64.77C-45.33,66-51.19,69-53.93,69s-9-4.24-13.19-4.24-8-3.9-12.5-2.51-3.8-3.57-7.28-4.87-10-1.31-10-1.31l-1.19,1.31c0-.87-1-1.31-3.22-1.31-3.24,0-11.84.54-14,2.42s-7-7.37-9.53-7.37-7.51-.86-10,0-8.5.34-11-1.13-17.46-2-23.06,0-7.21,0-9.8,0-5.16-3-7.66-3-13.91,3-17.79,3-6.77,6.27-10.1,7.39-5.36,3-8.44,3,1.07-1.87-5.08-1.87-7.28,4-9.84,5.14S-249,79.35-252.18,81s-15.15-13.5-17.37-12-7.11,5.59-14.07,5.59-14.67-1.66-26.59,0-16,6.44-19.58,6.44c-10.87,0-8.33-4.19-16.88-4.19-11.32,0-1.4,1.25-11.64,2.3s-2.63,8.42-17.74,8.42-18.7,2.09-25.23,2.09-7.43-4.06-9.67-6.32q-2.24-2.27-6.82-2.27l.3,127.07Z"/><path id="Path-28-4" data-name="Path-28" class="cls-4" d="M2145.26,208.27V67.78a18.23,18.23,0,0,1-5.54-4c-2.14-2.33-3.74-3.27-4.8-3.27s-5.64,6.15-10.55,3.27-7.13-6.26-9.73-6.26-14,6.09-23.79,7.39c-6.53.87-9.32,1.82-8.38,2.88a41.19,41.19,0,0,1-6.27-1.69c-3.4-1.19-4.82,0-7.3,0s-10.84-1.19-12.12-1.19-1.63-4.4-5.74-4.4-6.33-6.92-7.21-6.92-3.22,2.57-6.42,1.29-5.1-3.61-6.77-3.61-4.89-.59-6.08.86-6.13,1.52-6.13,4.09q0,2.58-7,4.29a4.78,4.78,0,0,1-3.52,4.4c-3.3,1.19-9.16,4.24-11.9,4.24s-9-4.24-13.2-4.24-8-3.9-12.49-2.52-3.81-3.56-7.29-4.87-10-1.3-10-1.3-.39.44-1.19,1.3c0-.86-1-1.3-3.21-1.3-3.25,0-11.84.54-14,2.42s-7-7.37-9.52-7.37-7.52-.86-10,0-8.5.34-11-1.13-17.46-2-23.06,0-7.21,0-9.81,0-5.16-3.05-7.65-3.05-13.91,3.05-17.8,3.05-6.76,6.27-10.09,7.38-5.36,3-8.44,3,1.06-1.87-5.08-1.87-7.28,4-9.84,5.14-11.31,15.71-14.52,17.4-15.16-13.5-17.37-12-7.12,5.59-14.07,5.59-14.68-1.66-26.59,0-16,6.44-19.58,6.44c-10.87,0-8.34-4.19-16.88-4.19-11.33,0-1.41,1.25-11.64,2.3s-2.63,8.42-17.74,8.42-18.7,2.09-25.23,2.09-7.43-4.06-9.67-6.32c-1.49-1.51-3.77-2.27-6.82-2.27l.3,127.07Z"/><path id="Path-28-5" data-name="Path-28" class="cls-5" d="M1119.59,208.27V67.78a18.41,18.41,0,0,0,5.55-4c2.13-2.33,3.73-3.27,4.79-3.27s5.64,6.15,10.55,3.27,7.13-6.26,9.73-6.26,14,6.09,23.79,7.39c6.53.87,9.32,1.82,8.38,2.88a41.19,41.19,0,0,0,6.27-1.69c3.41-1.19,4.82,0,7.3,0s10.85-1.19,12.13-1.19,1.62-4.4,5.73-4.4,6.33-6.92,7.21-6.92,3.22,2.57,6.42,1.29,5.1-3.61,6.77-3.61,4.89-.59,6.08.86,6.13,1.52,6.13,4.09q0,2.58,7,4.29a4.78,4.78,0,0,0,3.52,4.4c3.3,1.19,9.16,4.24,11.9,4.24s9-4.24,13.2-4.24,8-3.9,12.49-2.52,3.81-3.56,7.29-4.87,10-1.3,10-1.3l1.19,1.3c0-.86,1-1.3,3.21-1.3,3.25,0,11.85.54,14,2.42s7-7.37,9.52-7.37,7.52-.86,10,0,8.5.34,11-1.13,17.46-2,23.06,0,7.21,0,9.81,0,5.16-3.05,7.65-3.05,13.91,3.05,17.8,3.05,6.77,6.27,10.09,7.38,5.36,3,8.44,3-1.06-1.87,5.09-1.87,7.27,4,9.83,5.14,11.31,15.71,14.52,17.4,15.16-13.5,17.38-12,7.11,5.59,14.06,5.59,14.68-1.66,26.59,0,16,6.44,19.59,6.44c10.86,0,8.33-4.19,16.87-4.19,11.33,0,1.41,1.25,11.64,2.3s2.63,8.42,17.74,8.42,18.7,2.09,25.23,2.09,7.43-4.06,9.67-6.32q2.25-2.27,6.82-2.27l-.3,127.07Z"/><path id="Path-28-6" data-name="Path-28" class="cls-6" d="M97.12,208.27V67.78a18.29,18.29,0,0,1-5.55-4c-2.13-2.33-3.74-3.27-4.79-3.27s-5.64,6.15-10.55,3.27-7.13-6.26-9.73-6.26-14,6.09-23.79,7.39c-6.53.87-9.32,1.82-8.38,2.88a41.19,41.19,0,0,1-6.27-1.69c-3.41-1.19-4.82,0-7.3,0S9.91,64.9,8.63,64.9,7,60.5,2.9,60.5s-6.33-6.92-7.21-6.92-3.22,2.57-6.42,1.29-5.1-3.61-6.77-3.61-4.89-.59-6.08.86-6.13,1.52-6.13,4.09q0,2.58-7,4.29a4.76,4.76,0,0,1-3.52,4.4c-3.3,1.19-9.15,4.24-11.89,4.24s-9-4.24-13.2-4.24-8-3.9-12.5-2.52-3.8-3.56-7.28-4.87-10-1.3-10-1.3l-1.19,1.3c0-.86-1.05-1.3-3.21-1.3-3.25,0-11.85.54-14,2.42s-7-7.37-9.52-7.37-7.52-.86-10.05,0-8.51.34-11-1.13-17.46-2-23.07,0-7.2,0-9.8,0-5.16-3.05-7.65-3.05-13.91,3.05-17.8,3.05-6.77,6.27-10.09,7.38-5.37,3-8.45,3,1.07-1.87-5.08-1.87-7.27,4-9.83,5.14-11.31,15.71-14.52,17.4-15.16-13.5-17.38-12-7.11,5.59-14.06,5.59-14.68-1.66-26.59,0-16.05,6.44-19.59,6.44c-10.86,0-8.33-4.19-16.87-4.19-11.33,0-1.41,1.25-11.64,2.3s-2.63,8.42-17.74,8.42-18.71,2.09-25.24,2.09-7.42-4.06-9.66-6.32q-2.25-2.27-6.82-2.27l.3,127.07Z"/></g></svg>