<svg xmlns="http://www.w3.org/2000/svg" xmlns:xlink="http://www.w3.org/1999/xlink" viewBox="0 0 1702 258"><defs><style>.cls-1,.cls-2,.cls-3{fill-rule:evenodd;}.cls-1{fill:url(#åçûìßííûé_ãðàäèåíò_266);}.cls-2{fill:url(#åçûìßííûé_ãðàäèåíò_266-2);}.cls-3{fill:url(#åçûìßííûé_ãðàäèåíò_266-3);}</style><linearGradient id="åçûìßííûé_ãðàäèåíò_266" x1="553.15" y1="550.28" x2="553.15" y2="550.05" gradientTransform="matrix(2017, 0, 0, -435, -1114848, 239408.11)" gradientUnits="userSpaceOnUse"><stop offset="0" stop-color="#f7b398"/><stop offset="0.74" stop-color="#fad588"/><stop offset="1" stop-color="#fce780"/></linearGradient><linearGradient id="åçûìßííûé_ãðàäèåíò_266-2" x1="552.84" y1="550.28" x2="552.84" y2="550.05" gradientTransform="translate(1116547.8 239408.11) rotate(180) scale(2017 435)" xlink:href="#åçûìßííûé_ãðàäèåíò_266"/><linearGradient id="åçûìßííûé_ãðàäèåíò_266-3" x1="553.44" y1="550.28" x2="553.44" y2="550.05" gradientTransform="translate(1116547.8 239408.11) rotate(180) scale(2017 435)" xlink:href="#åçûìßííûé_ãðàäèåíò_266"/></defs><g id="Layer_1" data-name="Layer 1"><path id="Path-30" class="cls-1" d="M553.52,76.1q4.4-5.86,15.09-3.91c10.69,2,30,5.7,45.2,1.71s51.58-6.21,65.08-13.2q13.5-7,16.56-10.6a22.83,22.83,0,0,0,10.23,2.77c4.77,0,13.79-4.84,16.86-4.84s4.7-.45,5.73-1.36,3.61-4.18,5.76-4.18,3.37-4.85,5.79-4.85,2.71-2,4.13-2,3.43,3.74,5.71,3.74,7.79.2,9.2,1,4.53,2.11,6.3,1.05,2.83-2.11,4.46-1.05q1.62,1.05,9.87-4.72c2.8-2.08,5.36-3.12,7.66-3.12s3.85-.24,4.63-.74q12.69-9.88,17.12-11.62t7.48-3.12q9.86-9,13.33-9c3.48,0,8.36-2.09,10-2.09h5.64c2.09,0,7,3.56,9.31,3.56S869,8.24,871,6.77s7.38,2.76,9.44,2.76,6.28,1.2,8.67,1.2,6.85,6.35,10,6.35,5.75,1.49,11.79,6.27a162.28,162.28,0,0,0,18.13,12.33c3.61,2,9.06,6.81,12.38,6.81a44.5,44.5,0,0,1,8.07.91Q954.32,48,957,48c2.67,0,15.4.37,17.93,1.22s10.75,2.83,14.28,2.15,8.74,0,10.76,1.47,8.55,2.19,9.55,2.19,7.89-1.05,13,1.16,13.2,2.57,15.08.7a4.2,4.2,0,0,1,5.24-.7c1,.7,12.21,1.41,15,.7s8.21,4.76,13.77,5.62a20.88,20.88,0,0,1,10.11,4.58q-.18,2.05,4.71,2.79c4.9.74,7,3,11.47,3.48q4.44.51,14.5,2.71,9.32,4.13,15.68,5t37,3.2v53.6H553.52Z"/><path id="Path-30-2" data-name="Path-30" class="cls-2" d="M1776.73,76.1q-4.39-5.86-15.09-3.91c-10.69,2-30,5.7-45.2,1.71s-51.58-6.21-65.08-13.2q-13.5-7-16.56-10.6a22.83,22.83,0,0,1-10.23,2.77c-4.77,0-13.79-4.84-16.86-4.84s-4.7-.45-5.73-1.36-3.61-4.18-5.76-4.18-3.37-4.85-5.79-4.85-2.71-2-4.13-2-3.43,3.74-5.71,3.74-7.79.2-9.2,1-4.53,2.11-6.3,1.05-2.83-2.11-4.46-1.05q-1.62,1.05-9.87-4.72c-2.8-2.08-5.36-3.12-7.66-3.12s-3.85-.24-4.63-.74q-12.69-9.88-17.13-11.62t-7.47-3.12q-9.86-9-13.33-9c-3.49,0-8.36-2.09-10-2.09h-5.64c-2.09,0-7,3.56-9.31,3.56s-14.34-1.29-16.31-2.76-7.39,2.76-9.44,2.76-6.28,1.2-8.67,1.2-6.85,6.35-10,6.35-5.75,1.49-11.8,6.27a161.39,161.39,0,0,1-18.12,12.33c-3.61,2-9.06,6.81-12.39,6.81a44.49,44.49,0,0,0-8.06.91q-4.82,4.64-7.48,4.63c-2.67,0-15.4.37-17.93,1.22s-10.75,2.83-14.28,2.15-8.74,0-10.76,1.47-8.55,2.19-9.55,2.19-7.89-1.05-13,1.16-13.2,2.57-15.08.7a4.2,4.2,0,0,0-5.24-.7c-1,.7-12.21,1.41-15.05.7s-8.2,4.76-13.76,5.62a20.88,20.88,0,0,0-10.11,4.58q.18,2.05-4.71,2.79c-4.9.74-7,3-11.47,3.48q-4.44.51-14.5,2.71-9.32,4.13-15.68,5t-37,3.2v53.6h611.68Z"/><path id="Path-30-3" data-name="Path-30" class="cls-3" d="M559.18,76.1q-4.39-5.86-15.09-3.91c-10.69,2-30,5.7-45.2,1.71s-51.58-6.21-65.08-13.2q-13.5-7-16.56-10.6A22.83,22.83,0,0,1,407,52.87c-4.77,0-13.79-4.84-16.86-4.84s-4.7-.45-5.73-1.36-3.61-4.18-5.76-4.18-3.37-4.85-5.79-4.85-2.71-2-4.13-2-3.43,3.74-5.71,3.74-7.79.2-9.2,1-4.53,2.11-6.3,1.05-2.83-2.11-4.45-1.05q-1.63,1.05-9.88-4.72-4.2-3.12-7.66-3.12c-2.31,0-3.85-.24-4.63-.74Q308.23,21.94,303.8,20.2t-7.48-3.12q-9.85-9-13.33-9c-3.48,0-8.36-2.09-10-2.09h-5.64c-2.09,0-7,3.56-9.31,3.56s-14.34-1.29-16.31-2.76-7.38,2.76-9.44,2.76-6.28,1.2-8.67,1.2-6.85,6.35-10,6.35-5.76,1.49-11.8,6.27a162.28,162.28,0,0,1-18.13,12.33c-3.61,2-9.06,6.81-12.38,6.81a44.5,44.5,0,0,0-8.07.91Q158.39,48,155.72,48c-2.67,0-15.4.37-17.93,1.22S127,52.08,123.51,51.4s-8.74,0-10.76,1.47-8.55,2.19-9.55,2.19-7.89-1.05-13,1.16-13.2,2.57-15.08.7a4.2,4.2,0,0,0-5.24-.7c-1,.7-12.21,1.41-15,.7S46.58,61.68,41,62.54a20.88,20.88,0,0,0-10.11,4.58q.18,2.05-4.71,2.79c-4.9.74-7,3-11.47,3.48Q10.29,73.9.23,76.1q-9.32,4.13-15.68,5t-37,3.2v53.6H559.18Z"/></g></svg>