<svg xmlns="http://www.w3.org/2000/svg" xmlns:xlink="http://www.w3.org/1999/xlink" viewBox="0 0 1702 258"><defs><style>.cls-1,.cls-2,.cls-3{fill-rule:evenodd;}.cls-1{fill:url(#åçûìßííûé_ãðàäèåíò_263);}.cls-2{fill:url(#åçûìßííûé_ãðàäèåíò_263-2);}.cls-3{fill:url(#åçûìßííûé_ãðàäèåíò_263-3);}</style><linearGradient id="åçûìßííûé_ãðàäèåíò_263" x1="553.21" y1="551.53" x2="553.21" y2="551.27" gradientTransform="matrix(2401, 0, 0, -403, -1327392, 222439.11)" gradientUnits="userSpaceOnUse"><stop offset="0" stop-color="#194064"/><stop offset="0.33" stop-color="#1e607a"/><stop offset="1" stop-color="#329490"/></linearGradient><linearGradient id="åçûìßííûé_ãðàäèåíò_263-2" x1="552.94" y1="551.53" x2="552.94" y2="551.27" gradientTransform="translate(1329091.8 222439.11) rotate(180) scale(2401 403)" xlink:href="#åçûìßííûé_ãðàäèåíò_263"/><linearGradient id="åçûìßííûé_ãðàäèåíò_263-3" x1="553.45" y1="551.53" x2="553.45" y2="551.27" gradientTransform="translate(1329091.8 222439.11) rotate(180) scale(2401 403)" xlink:href="#åçûìßííûé_ãðàäèåíò_263"/></defs><g id="Layer_1" data-name="Layer 1"><path id="Path" class="cls-1" d="M557.87,164.52q7.62,2.37,8.12,4.09c.51,1.72-.06,2.58,1,2.58a18.24,18.24,0,0,1,3.51.56l1.57-1.81h3.74l4.78,5.05a3.73,3.73,0,0,0,3.14,1.33,18.29,18.29,0,0,1,5.13.89q-1.25-.36,3.1-2.22c4.35-1.86,10.69-12.46,15-13.25s11.1-1.32,13-3.05,1.62-2.37,3.51-3.09a19.72,19.72,0,0,0,3.2-1.49,10.4,10.4,0,0,1,3.71.83,26,26,0,0,0,6.33,1.33c2.18.37,3.28.87,3.28,1.49s1.66.93,5,.93l7.1,3.05,2.69,2.78q2.74-2.78,4.13-2.78c1.4,0,2.42,2,3.37,2s3.35-2.22,5.18-1.44,3.43,2.18,5.53,2.18q2.1,0,7.5,4.09a2.18,2.18,0,0,0,3.16,0c1.39-1.35,6.1-5.57,9.93-4.83S715.75,175,723.2,175s12.63-2.12,18.14-2.12A23.69,23.69,0,0,1,753,176.32q1.27,7.76,13.82,9.77t18,7.34A122.8,122.8,0,0,1,800.5,188c5.65-1.36,7.76-3.17,12-3.46s4.62,1.59,8,2.1a29.73,29.73,0,0,0,11.61,0c4.36-1,4.48-2.1,5.9-2.1s4.29-2.93,7.33-2.93,5.61,2.32,9.06,2.93q3.44.62,11.45,1.54l5.92.56c4.24-2.17,6.93-3.25,8-3.25,1.67,0,2,.67,4.31.67q2.28,0,10.63-4.28l4.18-.62q20.84-4.12,22.89-5.77a3.9,3.9,0,0,1,4.42-.53q17.52-2,21.47-4.26c3.94-2.22,3.56-3.84,8.46-2.41s18.89.51,22.78,2.41a29.77,29.77,0,0,0,7.67,2.58q10.64,4.89,13.91,5.38c3.27.5,5.13-2,8.45-2s8.66-3.45,11.4-3.45A5.79,5.79,0,0,0,1025,169h5.61l5.07-.6q4.54,6.87,8.58,6.87h4.85l9.75,3.93c3.34,1.32,5.78,3,7.94,2.45s2.19-4.05,8.75-1.83,13.18-4.8,26.89-4.8,8.6-4.58,17.31-3.8,8.79,2.26,15.1,3.8,7.4,13,8.65,13H1148c.9,0,5.83,2.24,7.17,1.12s4.91-2.24,5.91-1.12,1.8,4.15,4.54,5.42c1.83.84,2.74,1.59,2.74,2.24v60.9l-610.44-1Z"/><path id="Path-2" data-name="Path" class="cls-2" d="M1777.72,164.52q-7.6,2.37-8.12,4.09c-.5,1.72.06,2.58-1,2.58a18.13,18.13,0,0,0-3.51.56l-1.57-1.81h-3.75L1755,175a3.74,3.74,0,0,1-3.15,1.33,18.28,18.28,0,0,0-5.12.89c.83-.24-.21-1-3.1-2.22-4.35-1.86-10.69-12.46-15-13.25s-11.1-1.32-13-3.05-1.63-2.37-3.52-3.09a19.59,19.59,0,0,1-3.19-1.49,10.35,10.35,0,0,0-3.71.83,26,26,0,0,1-6.33,1.33c-2.19.37-3.28.87-3.28,1.49s-1.66.93-5,.93l-7.09,3.05-2.7,2.78q-2.73-2.78-4.13-2.78c-1.39,0-2.42,2-3.37,2s-3.35-2.22-5.17-1.44-3.44,2.18-5.53,2.18q-2.1,0-7.5,4.09c-1.18.9-2.23.9-3.16,0-1.39-1.35-6.1-5.57-9.94-4.83S1619.85,175,1612.4,175s-12.64-2.12-18.14-2.12a23.69,23.69,0,0,0-11.61,3.45q-1.28,7.76-13.82,9.77t-18,7.34A123.33,123.33,0,0,0,1535.1,188c-5.65-1.36-7.76-3.17-12-3.46s-4.63,1.59-8,2.1a29.68,29.68,0,0,1-11.6,0c-4.36-1-4.49-2.1-5.91-2.1s-4.28-2.93-7.32-2.93-5.62,2.32-9.06,2.93q-3.45.62-11.46,1.54l-5.91.56q-6.37-3.26-8-3.25c-1.67,0-2,.67-4.32.67q-2.28,0-10.62-4.28l-4.18-.62q-20.84-4.12-22.89-5.77a3.9,3.9,0,0,0-4.42-.53q-17.52-2-21.47-4.26c-3.95-2.22-3.57-3.84-8.47-2.41s-18.88.51-22.77,2.41a29.71,29.71,0,0,1-7.68,2.58q-10.62,4.89-13.9,5.38c-3.28.5-5.13-2-8.46-2s-8.65-3.45-11.4-3.45a5.81,5.81,0,0,1-4.59-2.18H1305l-5.06-.6q-4.55,6.87-8.58,6.87h-4.85l-9.75,3.93c-3.34,1.32-5.79,3-7.94,2.45s-2.19-4.05-8.75-1.83-13.18-4.8-26.9-4.8-8.59-4.58-17.31-3.8-8.78,2.26-15.09,3.8-7.4,13-8.65,13h-4.45c-.91,0-5.83,2.24-7.17,1.12s-4.92-2.24-5.91-1.12-1.8,4.15-4.55,5.42c-1.82.84-2.74,1.59-2.74,2.24v60.9l610.44-1Z"/><path id="Path-3" data-name="Path" class="cls-3" d="M557.87,164.52q-7.61,2.37-8.11,4.09c-.51,1.72.06,2.58-1,2.58a18.13,18.13,0,0,0-3.51.56l-1.57-1.81h-3.74L535.14,175a3.73,3.73,0,0,1-3.14,1.33,18.29,18.29,0,0,0-5.13.89c.83-.24-.21-1-3.1-2.22-4.35-1.86-10.69-12.46-15-13.25s-11.1-1.32-13.05-3.05-1.62-2.37-3.52-3.09a19.59,19.59,0,0,1-3.19-1.49,10.4,10.4,0,0,0-3.71.83,26,26,0,0,1-6.33,1.33c-2.19.37-3.28.87-3.28,1.49s-1.66.93-5,.93l-7.1,3.05-2.7,2.78q-2.73-2.78-4.13-2.78c-1.39,0-2.42,2-3.36,2s-3.36-2.22-5.18-1.44-3.44,2.18-5.53,2.18q-2.1,0-7.5,4.09c-1.18.9-2.23.9-3.16,0-1.39-1.35-6.1-5.57-9.93-4.83S400,175,392.55,175s-12.63-2.12-18.14-2.12a23.69,23.69,0,0,0-11.61,3.45q-1.28,7.76-13.82,9.77t-18,7.34A122.8,122.8,0,0,0,315.25,188c-5.65-1.36-7.76-3.17-12-3.46s-4.63,1.59-8,2.1a29.73,29.73,0,0,1-11.61,0c-4.36-1-4.48-2.1-5.9-2.1s-4.29-2.93-7.33-2.93-5.62,2.32-9.06,2.93c-2.3.41-6.11.93-11.46,1.54l-5.91.56q-6.37-3.26-8-3.25c-1.67,0-2,.67-4.31.67q-2.28,0-10.63-4.28l-4.18-.62Q196,175,193.9,173.4a3.9,3.9,0,0,0-4.42-.53q-17.52-2-21.47-4.26c-3.94-2.22-3.57-3.84-8.46-2.41s-18.89.51-22.78,2.41a29.77,29.77,0,0,1-7.67,2.58q-10.63,4.89-13.91,5.38c-3.28.5-5.13-2-8.46-2s-8.65-3.45-11.39-3.45A5.79,5.79,0,0,1,90.75,169H85.13l-5.06-.6q-4.54,6.87-8.58,6.87H66.64l-9.75,3.93c-3.34,1.32-5.78,3-7.94,2.45s-2.19-4.05-8.75-1.83S27,175,13.31,175s-8.6-4.58-17.31-3.8-8.79,2.26-15.1,3.8-7.4,13-8.65,13H-32.2c-.9,0-5.83,2.24-7.17,1.12s-4.91-2.24-5.91-1.12-1.8,4.15-4.54,5.42c-1.83.84-2.74,1.59-2.74,2.24v60.9l610.43-1Z"/></g></svg>