<svg xmlns="http://www.w3.org/2000/svg" xmlns:xlink="http://www.w3.org/1999/xlink" viewBox="0 0 1702 258"><defs><style>.cls-1,.cls-2,.cls-3,.cls-4,.cls-5{fill-rule:evenodd;}.cls-1{fill:url(#åçûìßííûé_ãðàäèåíò_268);}.cls-2{fill:url(#åçûìßííûé_ãðàäèåíò_268-2);}.cls-3{fill:url(#åçûìßííûé_ãðàäèåíò_268-3);}.cls-4{fill:url(#åçûìßííûé_ãðàäèåíò_268-4);}.cls-5{fill:url(#åçûìßííûé_ãðàäèåíò_268-5);}</style><linearGradient id="åçûìßííûé_ãðàäèåíò_268" x1="553.15" y1="551.2" x2="553.15" y2="550.96" gradientTransform="matrix(2018, 0, 0, -410, -1115400, 226080.86)" gradientUnits="userSpaceOnUse"><stop offset="0" stop-color="#806c8a"/><stop offset="0.53" stop-color="#ec626b"/><stop offset="1" stop-color="#fcac80"/></linearGradient><linearGradient id="åçûìßííûé_ãðàäèåíò_268-2" x1="553.39" y1="551.2" x2="553.39" y2="550.96" gradientTransform="translate(1117100.23 226080.86) rotate(180) scale(2018 410)" xlink:href="#åçûìßííûé_ãðàäèåíò_268"/><linearGradient id="åçûìßííûé_ãðàäèåíò_268-3" x1="551.81" y1="551.2" x2="551.81" y2="550.96" gradientTransform="matrix(2018, 0, 0, -410, -1113715.32, 226080.86)" xlink:href="#åçûìßííûé_ãðàäèåíò_268"/><linearGradient id="åçûìßííûé_ãðàäèåíò_268-4" x1="552.89" y1="551.2" x2="552.89" y2="550.96" gradientTransform="translate(1117100.23 226080.86) rotate(180) scale(2018 410)" xlink:href="#åçûìßííûé_ãðàäèåíò_268"/><linearGradient id="åçûìßííûé_ãðàäèåíò_268-5" x1="552.83" y1="551.2" x2="552.83" y2="550.96" gradientTransform="matrix(2018, 0, 0, -410, -1113715.32, 226080.86)" xlink:href="#åçûìßííûé_ãðàäèåíò_268"/></defs><g id="Layer_1" data-name="Layer 1"><path id="Path-26" class="cls-1" d="M606.94,132.19q10-2.17,12.14-2.17c2.13,0,12.42-8.41,15.52-7.3s3.87,4.68,6.25,4.68,1.07,3.31,5.57,4.79S666.85,140,670.24,140s.16-1.48,14,0c2.06.22,2.39-2.53,14.49-2.53s12.73-5.55,15.66-7.41a29.47,29.47,0,0,1,5.13-1.77,49.36,49.36,0,0,0,4.71-1.64c4.27-1.79,5.55,1.06,7.7,0,4-2,16.51-.48,18.48-5.83.58-1.58,6.16-2.4,9.11-2.4,5.24,0,25.71-10,26.8-8.83s6.5,2.38,12.77,2.38c13,0,6.15-4.05,13.13-2.38s6.14.44,13.76,2.38,10.34,2.07,15.8,4.26,3.14,5,7.38,3,25.8-5.13,28.2-5.13,3.33-2.14,13.65-2.14,6.83-3.28,21.69-3.28,23.15,10.5,29.73,9.73c2.53-.29-1.24,1.84,3.21,1.88,5,0,4.18,1.66,9.24,1.74,2.1,0,12.4-2.21,13.15-1.74a71.85,71.85,0,0,0,6.23,3.64q13.29.51,15.85-1.51c1.47-1.16,4.5-1.53,5.24-2.21,1.28-1.16,2.18-3.33,3-4.17,2.32-2.58,0-2.28,5.61-2.28s7.43-4.6,10.95-6.32c1.83-.88,11.27-2.4,16.35-3.67,4.75-1.19,5.13-2.18,7.6-1.55,5.09,1.31,14.37,5.22,19.26,5.22s7.1,1.43,11.62,1.43,2.58,1.1,9.95,3.74q7.38,2.64,40.42,1.15l-.28,92.5H606.94Z"/><path id="Path-26-2" data-name="Path-26" class="cls-2" d="M608.1,132.06q-10-2.17-12.14-2.17c-2.13,0-12.42-8.41-15.52-7.3s-3.87,4.68-6.25,4.68-1.07,3.31-5.57,4.79-20.43,7.77-23.82,7.77-.16-1.48-13.95,0c-2.06.22-2.39-2.53-14.49-2.53s-12.73-5.55-15.66-7.41a29.32,29.32,0,0,0-5.14-1.77c-2-.61-3.63-1.19-4.71-1.64-4.26-1.79-5.54,1.06-7.69,0-4-2-16.51-.48-18.48-5.83-.58-1.58-6.16-2.4-9.11-2.4-5.24,0-25.72-10-26.8-8.83s-6.51,2.38-12.77,2.38c-13,0-6.15-4-13.13-2.38s-6.14.44-13.76,2.38-10.34,2.07-15.8,4.26-3.14,5-7.38,3-25.8-5.13-28.2-5.13-3.33-2.14-13.65-2.14-6.83-3.28-21.69-3.28-23.15,10.5-29.73,9.73c-2.53-.29,1.24,1.84-3.21,1.88-5,.05-4.18,1.66-9.24,1.74-2.1,0-12.4-2.21-13.15-1.74a71.85,71.85,0,0,1-6.23,3.64q-13.29.51-15.85-1.51c-1.47-1.16-4.5-1.53-5.24-2.21-1.28-1.16-2.18-3.33-3-4.17-2.32-2.58,0-2.28-5.61-2.28s-7.43-4.6-11-6.32c-1.83-.88-11.27-2.4-16.35-3.67-4.75-1.19-5.13-2.18-7.6-1.55-5.09,1.31-14.37,5.22-19.26,5.22s-7.1,1.43-11.62,1.43-2.58,1.1-10,3.74q-7.38,2.64-40.42,1.15l.28,92.5H608.1Z"/><path id="Path-26-3" data-name="Path-26" class="cls-3" d="M-414.28,132.19q10-2.17,12.14-2.17c2.13,0,12.42-8.41,15.52-7.3s3.87,4.68,6.25,4.68,1.07,3.31,5.57,4.79S-354.37,140-351,140s.16-1.48,14,0c2.06.22,2.39-2.53,14.49-2.53s12.73-5.55,15.66-7.41a29.47,29.47,0,0,1,5.13-1.77,49.36,49.36,0,0,0,4.71-1.64c4.27-1.79,5.55,1.06,7.7,0,4-2,16.51-.48,18.48-5.83.58-1.58,6.16-2.4,9.11-2.4,5.24,0,25.71-10,26.8-8.83s6.5,2.38,12.77,2.38c13,0,6.15-4.05,13.13-2.38s6.14.44,13.76,2.38,10.34,2.07,15.8,4.26,3.14,5,7.38,3,25.8-5.13,28.2-5.13,3.33-2.14,13.65-2.14,6.83-3.28,21.69-3.28,23.15,10.5,29.73,9.73c2.53-.29-1.24,1.84,3.21,1.88,5,0,4.18,1.66,9.24,1.74,2.1,0,12.4-2.21,13.15-1.74A71.85,71.85,0,0,0-47,123.9q13.29.51,15.85-1.51c1.47-1.16,4.5-1.53,5.24-2.21,1.28-1.16,2.18-3.33,3-4.17,2.32-2.58,0-2.28,5.61-2.28s7.43-4.6,11-6.32c1.83-.88,11.27-2.4,16.35-3.67,4.75-1.19,5.13-2.18,7.6-1.55,5.09,1.31,14.37,5.22,19.26,5.22s7.1,1.43,11.62,1.43,2.58,1.1,9.95,3.74q7.38,2.64,40.42,1.15l-.28,92.5H-414.28Z"/><path id="Path-26-4" data-name="Path-26" class="cls-4" d="M1632.15,132.19q-10-2.17-12.14-2.17c-2.13,0-12.42-8.41-15.51-7.3s-3.87,4.68-6.26,4.68-1.07,3.31-5.57,4.79-20.43,7.77-23.82,7.77-.16-1.48-13.94,0c-2.06.22-2.39-2.53-14.5-2.53s-12.73-5.55-15.65-7.41a29.62,29.62,0,0,0-5.14-1.77,49.36,49.36,0,0,1-4.71-1.64c-4.27-1.79-5.54,1.06-7.7,0-4-2-16.51-.48-18.48-5.83-.58-1.58-6.16-2.4-9.11-2.4-5.23,0-25.71-10-26.8-8.83s-6.5,2.38-12.77,2.38c-13,0-6.15-4.05-13.13-2.38s-6.13.44-13.76,2.38-10.34,2.07-15.8,4.26-3.14,5-7.38,3-25.8-5.13-28.2-5.13-3.32-2.14-13.64-2.14-6.84-3.28-21.69-3.28-23.16,10.5-29.73,9.73c-2.54-.29,1.24,1.84-3.22,1.88-5,0-4.17,1.66-9.24,1.74-2.1,0-12.4-2.21-13.15-1.74a70.35,70.35,0,0,1-6.23,3.64q-13.29.51-15.85-1.51c-1.46-1.16-4.5-1.53-5.24-2.21-1.28-1.16-2.18-3.33-2.94-4.17-2.33-2.58,0-2.28-5.62-2.28s-7.42-4.6-11-6.32c-1.82-.88-11.27-2.4-16.34-3.67-4.76-1.19-5.14-2.18-7.6-1.55-5.1,1.31-14.37,5.22-19.27,5.22s-7.1,1.43-11.62,1.43-2.58,1.1-10,3.74q-7.37,2.64-40.41,1.15l.28,92.5h512.78Z"/><path id="Path-26-5" data-name="Path-26" class="cls-5" d="M1632,132.19q10-2.17,12.13-2.17c2.13,0,12.42-8.41,15.52-7.3s3.87,4.68,6.25,4.68,1.07,3.31,5.58,4.79,20.42,7.77,23.81,7.77.16-1.48,14,0c2.06.22,2.39-2.53,14.5-2.53s12.73-5.55,15.65-7.41a29.32,29.32,0,0,1,5.14-1.77,49.36,49.36,0,0,0,4.71-1.64c4.27-1.79,5.54,1.06,7.69,0,4-2,16.51-.48,18.48-5.83.59-1.58,6.16-2.4,9.11-2.4,5.24,0,25.72-10,26.81-8.83s6.5,2.38,12.77,2.38c13,0,6.14-4.05,13.12-2.38s6.14.44,13.76,2.38,10.34,2.07,15.81,4.26,3.14,5,7.37,3,25.81-5.13,28.2-5.13,3.33-2.14,13.65-2.14,6.83-3.28,21.69-3.28,23.16,10.5,29.73,9.73c2.54-.29-1.24,1.84,3.22,1.88,5,0,4.17,1.66,9.23,1.74,2.11,0,12.4-2.21,13.15-1.74a71.85,71.85,0,0,0,6.23,3.64q13.29.51,15.85-1.51c1.47-1.16,4.5-1.53,5.25-2.21,1.28-1.16,2.18-3.33,2.94-4.17,2.32-2.58,0-2.28,5.61-2.28s7.43-4.6,11-6.32c1.82-.88,11.26-2.4,16.34-3.67,4.76-1.19,5.13-2.18,7.6-1.55,5.1,1.31,14.37,5.22,19.26,5.22s7.1,1.43,11.62,1.43,2.58,1.1,10,3.74q7.36,2.64,40.41,1.15l-.28,92.5H1632Z"/></g></svg>